<mxfile host="app.diagrams.net" modified="2020-09-22T17:05:45.087Z" agent="5.0 (Windows NT 10.0; Win64; x64) AppleWebKit/537.36 (KHTML, like Gecko) Chrome/85.0.4183.102 Safari/537.36" etag="Hc-XJVdRPYRg9z3nbE4p" version="13.7.4" type="github">
  <diagram id="U7K0BPbz-fJNNmLHUcAO" name="Page-1">
    <mxGraphModel dx="1422" dy="882" grid="1" gridSize="10" guides="1" tooltips="1" connect="1" arrows="1" fold="1" page="1" pageScale="1" pageWidth="850" pageHeight="1100" math="0" shadow="0">
      <root>
        <mxCell id="0" />
        <mxCell id="1" parent="0" />
        <mxCell id="X2k3fC9n3ZFKnWpkV8dF-36" value="" style="rounded=1;whiteSpace=wrap;html=1;" vertex="1" parent="1">
          <mxGeometry x="590" y="510" width="60" height="20" as="geometry" />
        </mxCell>
        <mxCell id="X2k3fC9n3ZFKnWpkV8dF-1" value="" style="shape=image;verticalLabelPosition=bottom;labelBackgroundColor=#ffffff;verticalAlign=top;aspect=fixed;imageAspect=0;image=data:image/png,iVBORw0KGgoAAAANSUhEUgAAAV0AAAEBCAYAAADbxHY7AAAdxklEQVR4Ae2d/2sbZ57H99+4P+n+gv3hYMEYE1pCWxpCcwktCewtN2SISLWdbdUTW6UCtyvQtgLtnlPR9lDwpaL6QTmTZiuQg9ZqM1v5TisV5ofd5X3MN2kkW3acah5L1usHY8sajWY+z2tez1ufZ5z87B//+Ic8z9Ph4WHw3f+ZL2oAAzAAA4tlIHbsz/7+97/rxx9/1Pfff49smXBgAAZgICUGfMf6rg2kOxqNdHBwQLFTKjaJYbGJgXpSz1VkwHes79qf/e1vf9NwOFS320W6SBcGYAAGUmLAd6zvWqSbUoFXcSbmmEmQMJAeA0gX2ZJoYAAGDDKAdA0Wm/SQXnqgttR2VRhAukiXlAMDMGCQAaRrsNirMhNznKRGGEiPAaSLdEk5MAADBhlAugaLTXpILz1QW2q7KgwgXaRLyoEBGDDIANI1WOxVmYk5TlIjDKTHANJFuqQcGIABgwwgXYPFJj2klx6oLbVdFQaQLtIl5cAADBhkAOkaLPaqzMQcJ6kRBtJjAOkiXVIODMCAQQaQrsFikx7SSw/UltquCgNIF+mScmAABgwykLJ0e2psO7ItS5Zlyc5tq9GLZuRmUZZTVffUk+2q6lgqNpnJV2Um5zhhFQbmM5CqdJ+UM7ILdXVH/gEM1KkXZGcravuiRbqki1Mn3PngclFTm1VlIEXp9lXPWyo2knC0Vd+u6MtPnCD5+unXsopqBhdfR7VCNvp9VoVaR57XVDFKyf62TrUbyrrYHAurW3VkxY/7LZUdO9yH7ajc6o+3W9UB4riT/PAzPKw+AylK11OvlpOVyau652o0m2pmkm67kpVdbMj1PI3aFTlWQbsDv8Az7QX/dbFkPU9J6ba2LTmVdvBebqukrF3S3uz78piJCAZg4BwZSFW6/qzca1VUyPrp01ZuuxG1Go62F0Z9V/2gDeGLtqNq1lG1ezbp7pVsZQp1dfojoDpHqEhjq5/GGMP0xjB16caDN+p31NjOynJ2wsWzmaTr9RrazkWtgaClcHbpeqOuGuW8srYli/YCEw8TDwwsIQMpSjfs3zbd5Izh92gjmU5Jd6Ddgt+zbWsQFCmx3bHthcYYpmR7IRa8/30QtCi21VrCoiePk5+TfPAzPFx8BlKUbk+1nKVsqSk3aBuM5DaKysS92ta2rGxVnUCKbrBtoe4GMnX3ynJiOXs97fi3jMULcu2KMnZRjb4nb9QObicLe7xtVbK2irth/zjsCyNdLuKLfxEzxqs1xilKN5RivZib3KebLaj6JL6jYE/ljH/3QiTGTk354LGlbLGi7ayl7VZYzF49H9yR4Oz05Hl9Nf02hd+C8FsIpfxkYa1Ti/rHtBe4EFfrQmS81me80pUuH+3HbRAuqvW5qBhrxvokBpAuEwMTAwzAgEEGkK7BYp80+/Ec6QgG1oMBpIt0STkwAAMGGUC6BotNklmPJMM4M84nMYB0kS4pBwZgwCADSNdgsU+a/XiOdAQD68EA0kW6pBwYgAGDDCBdg8UmyaxHkmGcGeeTGEC6SJeUAwMwYJCBlZbuw7tbuvbp0znAfKXM5pYyD5l1T5p1eQ4+YMAsAylL96k+ub6ljc2jX4uQIdI1CwsXJ/WGgZ/OgBHpzk+jP+0EkO5Pqx8XEPWDAfMMnK909yu6tvm27jc/0LVLfhp+Sa/an2l/3F851ONP7+hK8NyWtq7e0f39SZEC6f72j8pffylM05duKN88jNoNR9sLh82ibr0Wbrv12h1V28M5rYnJewAltYABGFgkA0sg3S29bH+p/eFQw4Mvlbm8pVv3w39X99l9SxuX31bd9eU41Lcf3dTG1aK+jaTsS3dj86buPXI1HB7qsf/85h3Vhz4kM9Ld/1jXNm9qOxDtUPv37+jly2/rYbAtUC0SKvYFTyvDwPCpvn7wQPW5X03tL9gRRqR7pKd7vRKm2SDp3tHniZMKRPpO+L/9Dg9dPTtMpNFg+5v65CCE2t/2ykfJhbRvdO+1WNrT0vW3ffXDbxLJNtz2100ukJW5QMafgBgzxmxBDBw29d7Vo2tOY2e9VdTjwwW9V8SvEenO7elG7YWHiYspkO7dryI5umol2gthIW7ok6jF4G87u+/6+HdJ6aa7oMcFsFgoqSf1NMrA4Te699Yx4k1BuP55LbV09z+9EbYXDqK0G0j6xaUbty2MDmhiQuF9kQkMLCkDs+JNSbhLL90jSXb/Y13ZnJbu87UXhqrbW9qwH2iIBBMtliW9ABgjxug8GIjFm6Jwl166j3/7ijauf6DWwaEODx7p3lv+nQfT0n3uhbRH7+vlzVd0+4uDQLzD/S91+7Vfqhr1h0kgCBgGYMAbHuowscaUBhNG2gvjpnTijySCXuypPd2num+/ri3/dZdu6L0vPtavNl/XvcchHEESnrpl7Je693j+LWPPmh/ozcuT28vee3BAojiPRMF7wt0aM5CydJk505gp2SdcwcDqMoB013jG5cJd3QuXsVvdsUO6SJePujAAAwYZQLoGi006Wd10wtgxdotiAOkiXVIODMCAQQaQrsFiL2qmZD+kLhhYXQaQLtIl5cAADBhkYKHSfff9vPiiBjAAA+vAwIt+2liodF/0IHjd6n5UYuwYOxg4GwNI1+DHCuA8G5zUi3pdRAaQLtKlnwcDMGCQAaRrsNgXcdbmnEijMHA2BpAu0iXlwAAMGGQA6RosNongbImAelGvi8gA0kW6pBwYgAGDDCBdg8W+iLM250QahYGzMYB0kS4pBwZgwCADSNdgsUkEZ0sE1It6XUQGkC7SJeXAAAwYZADpGiz2RZy1OSfSKAycjQGki3RJOTAAAwYZQLoGi00iOFsioF7U6yIygHSRLikHBmDAIANI12CxL+KszTmRRmHgbAwgXaRLyoEBGDDIANI1WGwSwdkSAfWiXheRAaSLdEk5MAADBhlAugaLfRFnbc6JNAoDZ2MA6SJdUg4MwIBBBpCuwWKTCM6WCKgX9bqIDCBdpEvKgQEYMMgA0jVY7Is4a3NOpFEYOBsDSBfpknJgAAYMMoB0DRabRHC2REC9qNdFZADpIl1SDgzAgEEGkK7BYl/EWZtzIo3CwNkYSFW63aojy7Kmv5yqusZF11TRclTtzhSnW5Uze3zR42JzZlvjx8z7czHDwEVkIH3pFptL8NFljnQTIg0miKU4Vi60i3ihcU5wHTNwbtIdtWsqZMMUbDvbavSiQWkWZeVLKjuWLF+CweOyKjk7TMxOWa32rorxa3M76sTy7LdUdqLtbEflVl/eTJqdl2BnpTvYLchKpHK3lpNV2NXA31+2qFIhGx5PJq9aZwJUv1WWY4fn5ZRb6sfHxvclmHwn4xRfAHynJqYZOB/pDpoq2hkVG648b6RuvSA7W1HbF5MvWbugencUXqTB46J2Xf+xq3rBkmUX1XB9WDqqOpZyNX8/A+0WLDmVtkaeJ7dRlJ2J9um9SNJNvibcd2F3EEncUXkvPPa230KJj727I8fKa8c/9lE7OLZ83d8OsKkBDMBAyED60p3qmUZ91UZRVq4mdyyjtiqZjCrtSLrJj/m+dBOPZxOp/9ipdgOxDfp9Dcb7bKhoFdUMHicFejz8s/v1AWmVbOVqPXmDXRWsgnYHXiTdeL/+vvz3cbTT89TbcWSX9iaS9c8zcexAd3ztqQt1WScG0pfuMdI5KrhukAqDj/4zkg2Sb2Ifs69NSrf/pKpCNmovBLKP5fhi0vX2SrJzNXX8VkN8DEG7It6vf7H4xx5OJs3izKKhfwyJFsU6gcW5IlIYOJ6Bc5Gu5ydAvz86TqWLSLptVbJhy8JvL4S93FiOLyhdzz+unHI5S+Ne8BHpTpJup5pVptKeJN3x+R1ffKCkLjCwfgycj3RP6+nGqdKX1kzynZ9091Sysyo/8Xu/UZ943F5oadvKqppY8JqFfXa/8fPtir9gFss7lvlMTzdOs+2KsnZOO+3wGNxGWdu7PSTM5AMDMDBm4Hyk63k68e6FF5Kup+DOgaCtYCtXKSsf9Vp9ge6VM8HdBtut42fWedL1U7ldao0LFiZoR/k5dy/0Gtvjuxds/06L/vHvF0ud79QHBtaLgVSlu/ow+XdLZFRKivpIe2G9gFn9MWW8GMPzZQDpzvvYE8jVUna7OX2vLdKdpP55teP31AgG5jKAdIFjLhwkovNNRNT/YtYf6SJdpAsDMGCQAaRrsNgkl4uZXBhXxvUsDCBdpEvKgQEYMMgA0jVY7LPMhmxLeoKBi8kA0kW6pBwYgAGDDCBdg8UmuVzM5MK4Mq5nYQDpIl1SDgzAgEEGkK7BYp9lNmRb0hMMXEwGjEj32aOKbl99SRubW9rYfElX7IoeHy6moA/vbmnj7lfM1EweMAADK8FA6tIdNn+jlzdf0e0v2jocDjU8bOtz+xVtvFXR/gIgQbqLmbxIVdQRBswwkLJ027p3dUtXPvxmegYafqnbm1vKPPRP8itlNm/ok/3JCe9/ekMb1ydSPmx+oDcvh0l56/JN5Zv+f4Hjv85PzvHX23oYSHyob++/rWuXwt9vXX9bnyf27Uv62m//qPz1KHlfuhHsb//+Hb0avOYlvWp/tpAJAYgnY0otqAUMhAykK133M93afF33Hs8CN9R+84G+3h+eLl33M/1q8xVlHrgaekM9e/C2Xt68qWrwf6R5mk26h1/c0cZlS9W2v++hvv3opjY27+jzqJ0RbH/5jj5vH2o4dPUw94Y2Lvmi/VL7fhI/eKDM5S3dus//bcZFMsstjy8cE8On+vrBA9XnfjW1P1zsuKcr3f2Krs2k2KODdkrSDfZhjaXp/+eUjx880ONjpftUn1zf0pt/SArTVfWtLV379GmQtn3pXvko/Dk4lv2PdWXzDW3PpGH6xIsF7ei4s39qsgQMHDb13tX40/Ix398qLmz9KR7v5Zeu91T3//11bVx6XbfuFlV99FTDRC94Oun6Aj+arFu5V8aLbf72sYBD6R6dGKb3uQRgJM43Hji+My4wsCAGDr/RvbfMCNcfs3SlO7e94Gl46OowiO2nJN1IOMP9R/r809/o1msvaePqB2pFkX9akMdL9+t3Jnc4IN0FgcpEML1OQT1Wux6z4k0h4caTZLrS9eKFtJn/rPHIQtr0x/vkQtpwv6l6M5lum3rvcrwIN9vTfb72AkkX8cYXAN9hYcxALN4Uheu/V8rS9XT40F/4ekO/fuDfMuYn3NlbxkJRXsl9pWfDoQ7bX+r25a3J3QuP3g8Wzu49Cvu0w/bHurb5ivLR4tz+R28Et58d+ItgnqdwIe2OPg8W6Yb69tNf6uWZhTSky4U2vtBIqKudUBc9fsPD6BN4etdI6tL14X7WLOpW/McRl17Rm3f/ON2c3v9Mv3otusXr6h29d/eNiXQ9TwcP3h/fMrZx6YYyXyQXwuLX3tQnB36hhvr2D3d0JXHL2P3gToawiLQX0oMJkVFbGDidASPSZSBOHwhqRI1gYD0YQLqL/njC/vi4CgMwcAIDSPeE4pA81iN5MM6Ms0kGkC7SJZXAAAwYZADpGiy2ydmU9yK9wcByMoB0kS4pBwZgwCADSNdgsUkey5k8GBfGxSQDC5Xuu+/nxRc1gAEYWAcGXlTUC5Xuix4EryNpwAAMrAsDSJf2Av08GIABgwwgXYPFXpeZnPMktcLAfAaQLtIl5cAADBhkAOkaLDaz//zZn9pQm3VhAOkiXVIODMCAQQaQrsFir8tMznmSWmFgPgNIF+mScmAABgwygHQNFpvZf/7sT22ozbowgHSRLikHBmDAIANI12Cx12Um5zxJrTAwnwGki3RJOTAAAwYZQLoGi83sP3/2pzbUZl0YQLpIl5QDAzBgkAGka7DY6zKTc56kVhiYzwDSRbqkHBiAAYMMIF2DxWb2nz/7Uxtqsy4MIF2kS8qBARgwyADSNVjsdZnJOU9SKwzMZwDpIl1SDgzAgEEGkK7BYjP7z5/9qQ21WRcGkC7SJeXAAAwYZADpGiz2uszknCepFQbmM4B0kS4pBwZgwCADSNdgsZn958/+1IbarAsDSBfpknJgAAYMMoB0DRZ7XWZyzpPUCgPzGUC6SJeUAwMwYJABpGuw2Mz+82d/akNt1oUBpIt0STkwAAMGGUC6Bou9LjM550lqhYH5DCBdpEvKgQEYMMgA0jVYbGb/+bM/taE268IA0kW6pBwYgAGDDCBdg8Vel5mc8yS1wsB8BpAu0iXlwAAMGGQA6RosNrP//Nmf2lCbdWEA6SJdUg4MwIBBBpCuwWKvy0zOeZJaYWA+A0gX6ZJyYAAGDDKAdA0Wm9l//uxPbajNujCAdJEuKQcGYMAgA0jXYLHXZSbnPEmtMDCfAaSLdEk5MAADBhlAugaLzew/f/anNtRmXRhAukiXlAMDMGCQAaRrsNjrMpNznqRWGJjPANJNW7q7t3Xwux5JIu06s38YWxEGkG5aA9X9TN+983v95Xf/poP/+C+5v7ut75vzZz+SAbWBgfVgAOmmJV3P01/bTX1/5Z/155/flbvX0zDF9+KCXY8LlnFe/XFGuimK8K9+a+HWf8t951908J8/8PEvxVojo9WX0bqM4QWTbldVx1JxST7GD/aa+mHgXwx/0g/NH/Qj0mHigYG1ZyBV6bZKtqxcTb0joLVVyVrKlJ8seAAWLd2milZC4s2iLMuafNlZ5cuNY86P1LEuqYXzhPWzMpCqdL12RRnLUbU7MzDtirJWVpX2zO+PyPmsz5uQblHN4DgH6neaquQzspyqOj/52M96rmx/VtjZHmaWgYF0peuFidapdqcSbbuSDUTVjUTVb1WUz0YJMltQrT2KtveTpqNKo6ZC9LztlNXqT+Dp1ArKBunTlrNd1XY2kUw9T+7UvvOqtPrjY+lWHVnFqnZytiwrlulk3553XNKd3W5PpYylXI3bwpYBaI4hyS8/LyMPKUvXUyA2p6pYsJ4v4qSkOlU5fhpuD+R5A3XqBdl2Uc2gFxpKz3Iq2nNHGvWfqOJYskt7oTj3SkGSruy5Go36wWszyXZAlKhLTVcjbyS3UVQmkbCDY7MyKtSeqOv2NTqSVp9Hup7alYyswq4GR14P9MsIPccEl+fJQOrS9Xo15RKiC1sOOdXccOCbRUuZSnucPmMpb7f8533pZabaEKHEd4I+qv9au9RKvLajaiLpHn3eU9BnLjaD1wT7OlGWzyfdoxMLUJ8n1Lw3/C0zA+lL13NVy1nKRmLd8xfXxqILe7BTi1PRQlV4B4Ivveme8ERw4WtzNTch3WRPN/y5sOsn6AmEbi03bm0E+4oEnNxm8jPSndRiUkN+Ry1g4MUZMCBdT4PdgqxsRW1vTyXb0kSEx4kzeTKLl25vx1m4dGkvJMeMnxESDJzEgBHpeoNdFfwWw05Jtl1Sa5w8B9otWInkOztYJ0nX09H2wQu0F35y0mUh7STAeG6WaR6vOxNmpOuFgvTbCNM9WE9esBiWUaHeDRayBp26Cpmcaj0fzpOlG77WUbyQ9qSW19GFtOh5fyGtWZq6Ve2ntRf8W8Ya2nYsbhkbT6IIZd2Fwvmffg0Yk67XKsmeWRSLB8htlZWzo1vGbEfbjfj2q1Ok63k6/ZaxxL6z/i1jkx7wi0mXP46Ix43vp19g1IgazTJgTrqkoakFvdmB4DEXJwysBwNIl8mAyQAGYMAgA0jXYLFJMuuRZBhnxvkkBhYq3Xffz4svagADMLAODJwk1pOeW6h0T3ojnmP2hwEYgAFPSJf2Av08GIABgwwgXYPFZpYn6cEADCBdpEvKgQEYMMgA0jVYbFIOKQcGYADpIl1SDgzAgEEGkK7BYpNySDkwAANIF+mScmAABgwygHQNFpuUQ8qBARhAukiXlAMDMGCQAaRrsNikHFIODMAA0kW6pBwYgAGDDCBdg8Um5ZByYAAGkC7SJeXAAAwYZADpGiw2KYeUAwMwgHSRLikHBmDAIANI12CxSTmkHBiAAaSLdEk5MAADBhlAugaLTcoh5cAADCBdpEvKgQEYMMgA0jVYbFIOKQcGYADpIl1SDgzAgEEGkK7BYpNySDkwAANIF+mScmAABgwygHQNFpuUQ8qBARhAukiXlAMDMGCQAaRrsNikHFIODMAA0kW6pBwYgAGDDCBdg8Um5ZByYAAGkC7SJeXAAAwYZADpGiw2KYeUAwMwgHSRLikHBmDAIANI12CxSTmkHBiAAaSLdEk5MAADBhlAugaLTcoh5cAADCBdpEvKgQEYMMgA0jVYbFIOKQcGYADpIl1SDgzAgEEGkK7BYpNySDkwAANIF+mScmAABgwygHQNFpuUQ8qBARhAukiXlAMDMGCQAaRrsNikHFIODMAA0kW6pBwYgAGDDCBdg8Um5ZByYAAGkC7SJeXAAAwYZADpGiw2KYeUAwMwgHTXTrpNffeL3+t/1+68udgR/nIwgHTXRj49ue/c1bPdqnq/+FDuF7/Xdx829ePanP9yXHCIj3FAumskndFgXz98+K/68z9t6Lsv/qT/G3ABIEEYMM0A0l0j6XqDpr77+W25u3n9+cpn+r91OnfOlcWyJWEA6S7JQJiYbX90/0d/2ftrcPH1m00N1ujcTdSX9yA1Pw8DRqTr7lVVyNqyLEuWZStbqOpJfzED1CxasopNQ7N4V1XHP4ejX8XmYs7neQbtxG2aRVlWUU2EaoiJJRl3xntlxjt16Q5a28pYGRXqHfUHIw36HdULGVlOVZ0FgHIe0nWq3eUdYKS7vGOzAN5PnHDZ/0qMfcrSbauStZSttKeLMdhVwbIUpsOmipajaneSGLpVJ5ByN4Ko3yorZ0fp0s6p3HLlef7rkokzTncjtetFOdH2tlPUbmeyb1/STrmmshMlb9sJ9tepFZSN9pct1OZMCGHSPVG6bkuVfDZKw1nlKy3144uhW5VjFVXdycmOzj8412JVtcLkNYVaR26rnDiHslqJTwb9J4lPDnZW/vb+xRhMQImaLE36js+f79PXAfVYy3qkK123ppyVUaU9kV44Uw/UaTXU6gwieZ4gXbeuvJVRseFq5I3kNorKWDnVeuE+Z5Nuf7cgK5NXre3ve6C2L3CroN1IWsH2mYLqnb5GI1fNUii7bKGujp/Eew0VM5ZyNV/ss8d9mnSjSabUlDvyNHLDfY0nnUC6ljKFmp50XfVHngLpWo4qez0NRgN1dvKBsO1cRXvuSKP+k6ClYZf2wuOZqoenUdsXeXZSY5LuMeM2O448Pso2NTFVk3SlG0hmWqhHT+yUpBvsI6/6OOm5etJo6IkbQjIt3VCKuVovceH1VMtZitOpv322GibD4Fg6VWWtrKozafj4PvGcnm7cU/aFZ5fUSsq6VZId91iDcyloN3GrVph0G4njbQQJvtiYXARTyX/Ul+v2NRq/RzQR7ETnjHQTtZzU8Ch3PEdNzoeB5Zeu11U9n5FlZZUvVlTb60ytuk9L1xf40WS9V7LHi23+9rGAA+iOmRim95kcmJOTbiDHwu7U8XlB2o8mnuC94jZIuN9QusmFwLBtkmwNTEnX8zS9MBm2WMbnhHSR7nhCTrLLz8syyaQr3bntBU+Dvqt+kPhOSboRQIPOnurVbeWzlqxsWXtRWpwW5PHSbW1P7nAwLt3ejpy4Z70I6Qb78NstvUjuMxMB0kW6SHepGUhXut7zLqRNf7xPJrtBp6VGK5luWyrZ8SJctHgUf7z3QgGd1l4Yp0IfzgUmXe+52gs/Men67+FUFS8yel5H1WwivSPdpb7gliVtcRznl/xTlq6nftNf+Mpqu9EJFo6O3jIWijIbLD6N1O/UVchYE7HslZQJFprCha1BuyLHyqj8JCxap5qVldtRbzAIkl+4kOYvlEULacGdAtMLaalJN5pknMpetJDWVCl598Yiku6TclCP8l5P/X5Pe5VcsPA2PqegR53TTm+gQaJ3zEV2fhcZtaf2SQZSl67/Zm6ronzijyNyxdr0H0d0asr7orUs2dmCSsXsRLqep15jO3HLmKPibmIhrFuPXutoJ7ijYaS2f/tX4paxens0Tj9ptheCwrotlXPxH4KEt4y58ce9RUjX8zS5vc2Ws11XJW8pM74tL+6BW3LixbX4/fk+5iB5EfAzUjTJgBHpmjwh3osLCAZgYJkZQLqkP9IfDMCAQQaQrsFiL/Psy7GRDmHADAMLle677+fFFzWAARhYBwZedJJaqHRf9CB4nZkZljpTZxg4fwZi6f4/YcIoQo3Kuj4AAAAASUVORK5CYII=;" vertex="1" parent="1">
          <mxGeometry x="40" y="130" width="349" height="257" as="geometry" />
        </mxCell>
        <mxCell id="X2k3fC9n3ZFKnWpkV8dF-5" value="Custom" style="text;html=1;strokeColor=none;fillColor=none;align=center;verticalAlign=middle;whiteSpace=wrap;rounded=0;" vertex="1" parent="1">
          <mxGeometry x="50" y="420" width="260" height="30" as="geometry" />
        </mxCell>
        <mxCell id="X2k3fC9n3ZFKnWpkV8dF-7" value="" style="triangle;whiteSpace=wrap;html=1;rotation=90;" vertex="1" parent="1">
          <mxGeometry x="221.25" y="431.25" width="7.5" height="10" as="geometry" />
        </mxCell>
        <mxCell id="X2k3fC9n3ZFKnWpkV8dF-11" value="Field 2" style="text;html=1;strokeColor=none;fillColor=none;align=center;verticalAlign=middle;whiteSpace=wrap;rounded=0;" vertex="1" parent="1">
          <mxGeometry x="160" y="490" width="40" height="20" as="geometry" />
        </mxCell>
        <mxCell id="X2k3fC9n3ZFKnWpkV8dF-12" value="Field 3" style="text;html=1;strokeColor=none;fillColor=none;align=center;verticalAlign=middle;whiteSpace=wrap;rounded=0;" vertex="1" parent="1">
          <mxGeometry x="160" y="520" width="40" height="20" as="geometry" />
        </mxCell>
        <mxCell id="X2k3fC9n3ZFKnWpkV8dF-13" value="" style="endArrow=none;html=1;" edge="1" parent="1">
          <mxGeometry width="50" height="50" relative="1" as="geometry">
            <mxPoint x="58.75" y="480" as="sourcePoint" />
            <mxPoint x="228.75" y="480" as="targetPoint" />
          </mxGeometry>
        </mxCell>
        <mxCell id="X2k3fC9n3ZFKnWpkV8dF-14" value="" style="endArrow=none;html=1;" edge="1" parent="1">
          <mxGeometry width="50" height="50" relative="1" as="geometry">
            <mxPoint x="58.75" y="510" as="sourcePoint" />
            <mxPoint x="228.75" y="510" as="targetPoint" />
          </mxGeometry>
        </mxCell>
        <mxCell id="X2k3fC9n3ZFKnWpkV8dF-15" value="" style="endArrow=none;html=1;" edge="1" parent="1">
          <mxGeometry width="50" height="50" relative="1" as="geometry">
            <mxPoint x="58.75" y="540" as="sourcePoint" />
            <mxPoint x="228.75" y="540" as="targetPoint" />
          </mxGeometry>
        </mxCell>
        <mxCell id="X2k3fC9n3ZFKnWpkV8dF-18" value="" style="endArrow=none;html=1;" edge="1" parent="1">
          <mxGeometry width="50" height="50" relative="1" as="geometry">
            <mxPoint x="58.75" y="441.25" as="sourcePoint" />
            <mxPoint x="228.75" y="441.25" as="targetPoint" />
          </mxGeometry>
        </mxCell>
        <mxCell id="X2k3fC9n3ZFKnWpkV8dF-21" value="" style="edgeStyle=orthogonalEdgeStyle;rounded=0;orthogonalLoop=1;jettySize=auto;html=1;" edge="1" parent="1" source="X2k3fC9n3ZFKnWpkV8dF-20" target="X2k3fC9n3ZFKnWpkV8dF-5">
          <mxGeometry relative="1" as="geometry" />
        </mxCell>
        <mxCell id="X2k3fC9n3ZFKnWpkV8dF-20" value="Field 1" style="text;html=1;strokeColor=none;fillColor=none;align=center;verticalAlign=middle;whiteSpace=wrap;rounded=0;" vertex="1" parent="1">
          <mxGeometry x="160" y="460" width="40" height="20" as="geometry" />
        </mxCell>
        <mxCell id="X2k3fC9n3ZFKnWpkV8dF-22" value="Custom" style="text;html=1;strokeColor=none;fillColor=none;align=center;verticalAlign=middle;whiteSpace=wrap;rounded=0;" vertex="1" parent="1">
          <mxGeometry x="295" y="411.25" width="260" height="30" as="geometry" />
        </mxCell>
        <mxCell id="X2k3fC9n3ZFKnWpkV8dF-24" value="Field 1" style="text;html=1;strokeColor=none;fillColor=none;align=center;verticalAlign=middle;whiteSpace=wrap;rounded=0;" vertex="1" parent="1">
          <mxGeometry x="405" y="470" width="40" height="20" as="geometry" />
        </mxCell>
        <mxCell id="X2k3fC9n3ZFKnWpkV8dF-26" value="" style="endArrow=none;html=1;" edge="1" parent="1">
          <mxGeometry width="50" height="50" relative="1" as="geometry">
            <mxPoint x="400" y="490" as="sourcePoint" />
            <mxPoint x="570" y="490" as="targetPoint" />
          </mxGeometry>
        </mxCell>
        <mxCell id="X2k3fC9n3ZFKnWpkV8dF-27" value="" style="rounded=1;whiteSpace=wrap;html=1;" vertex="1" parent="1">
          <mxGeometry x="590" y="470" width="60" height="20" as="geometry" />
        </mxCell>
        <mxCell id="X2k3fC9n3ZFKnWpkV8dF-28" value="Add New" style="text;html=1;strokeColor=none;fillColor=none;align=center;verticalAlign=middle;whiteSpace=wrap;rounded=0;" vertex="1" parent="1">
          <mxGeometry x="590" y="470" width="60" height="20" as="geometry" />
        </mxCell>
        <mxCell id="X2k3fC9n3ZFKnWpkV8dF-30" value="" style="endArrow=none;html=1;" edge="1" parent="1">
          <mxGeometry width="50" height="50" relative="1" as="geometry">
            <mxPoint x="400" y="441" as="sourcePoint" />
            <mxPoint x="570" y="441.25" as="targetPoint" />
          </mxGeometry>
        </mxCell>
        <mxCell id="X2k3fC9n3ZFKnWpkV8dF-31" value="Field 2" style="text;html=1;strokeColor=none;fillColor=none;align=center;verticalAlign=middle;whiteSpace=wrap;rounded=0;" vertex="1" parent="1">
          <mxGeometry x="405" y="500" width="40" height="20" as="geometry" />
        </mxCell>
        <mxCell id="X2k3fC9n3ZFKnWpkV8dF-32" value="" style="endArrow=none;html=1;" edge="1" parent="1">
          <mxGeometry width="50" height="50" relative="1" as="geometry">
            <mxPoint x="400" y="520" as="sourcePoint" />
            <mxPoint x="570" y="520" as="targetPoint" />
          </mxGeometry>
        </mxCell>
        <mxCell id="X2k3fC9n3ZFKnWpkV8dF-33" value="Add New" style="text;html=1;strokeColor=none;fillColor=none;align=center;verticalAlign=middle;whiteSpace=wrap;rounded=0;" vertex="1" parent="1">
          <mxGeometry x="590" y="510" width="60" height="20" as="geometry" />
        </mxCell>
        <mxCell id="X2k3fC9n3ZFKnWpkV8dF-39" value="Field 3" style="text;html=1;strokeColor=none;fillColor=none;align=center;verticalAlign=middle;whiteSpace=wrap;rounded=0;" vertex="1" parent="1">
          <mxGeometry x="405" y="530" width="40" height="20" as="geometry" />
        </mxCell>
        <mxCell id="X2k3fC9n3ZFKnWpkV8dF-40" value="" style="endArrow=none;html=1;" edge="1" parent="1">
          <mxGeometry width="50" height="50" relative="1" as="geometry">
            <mxPoint x="400" y="550" as="sourcePoint" />
            <mxPoint x="570" y="550" as="targetPoint" />
          </mxGeometry>
        </mxCell>
      </root>
    </mxGraphModel>
  </diagram>
</mxfile>
